<svg width="317" height="102" viewBox="0 0 317 102" fill="none" xmlns="http://www.w3.org/2000/svg">
<g clip-path="url(#clip0_3160_2520)">
<rect x="30" y="25.269" width="50" height="50" rx="8" fill="black"/>
<path fill-rule="evenodd" clip-rule="evenodd" d="M81.5 121.269C106.077 121.269 126 101.346 126 76.769C126 52.1924 106.077 32.269 81.5 32.269C56.9233 32.269 37 52.1924 37 76.769C37 101.346 56.9233 121.269 81.5 121.269ZM81.5 116.819C103.619 116.819 121.55 98.888 121.55 76.769C121.55 54.65 103.619 36.719 81.5 36.719C59.381 36.719 41.45 54.65 41.45 76.769C41.45 98.888 59.381 116.819 81.5 116.819Z" fill="#FC4A55"/>
<path fill-rule="evenodd" clip-rule="evenodd" d="M81.5 116.819C103.619 116.819 121.55 98.8882 121.55 76.7692C121.55 54.6502 103.619 36.7192 81.5 36.7192C59.3809 36.7192 41.45 54.6502 41.45 76.7692C41.45 98.8882 59.3809 116.819 81.5 116.819ZM81.5 112.369C101.161 112.369 117.1 96.4306 117.1 76.7692C117.1 57.1079 101.161 41.1692 81.5 41.1692C61.8386 41.1692 45.9 57.1079 45.9 76.7692C45.9 96.4306 61.8386 112.369 81.5 112.369Z" fill="#FFB045"/>
<path fill-rule="evenodd" clip-rule="evenodd" d="M81.4999 112.369C101.161 112.369 117.1 96.4303 117.1 76.7689C117.1 57.1076 101.161 41.1689 81.4999 41.1689C61.8386 41.1689 45.8999 57.1076 45.8999 76.7689C45.8999 96.4303 61.8386 112.369 81.4999 112.369ZM81.4999 107.919C98.7036 107.919 112.65 93.9726 112.65 76.7689C112.65 59.5653 98.7036 45.6189 81.4999 45.6189C64.2962 45.6189 50.3499 59.5653 50.3499 76.7689C50.3499 93.9726 64.2962 107.919 81.4999 107.919Z" fill="#FFFA6D"/>
<path fill-rule="evenodd" clip-rule="evenodd" d="M81.5 103.469C96.2461 103.469 108.2 91.5149 108.2 76.7688C108.2 62.0228 96.2461 50.0688 81.5 50.0688C66.754 50.0688 54.8 62.0228 54.8 76.7688C54.8 91.5149 66.754 103.469 81.5 103.469ZM81.5 99.0188C93.7884 99.0188 103.75 89.0572 103.75 76.7688C103.75 64.4805 93.7884 54.5188 81.5 54.5188C69.2117 54.5188 59.25 64.4805 59.25 76.7688C59.25 89.0572 69.2117 99.0188 81.5 99.0188Z" fill="#3BA9FE"/>
<path fill-rule="evenodd" clip-rule="evenodd" d="M81.5 99.019C93.7883 99.019 103.75 89.0574 103.75 76.769C103.75 64.4807 93.7883 54.519 81.5 54.519C69.2117 54.519 59.25 64.4807 59.25 76.769C59.25 89.0574 69.2117 99.019 81.5 99.019ZM81.5 94.569C91.3307 94.569 99.3 86.5997 99.3 76.769C99.3 66.9384 91.3307 58.969 81.5 58.969C71.6693 58.969 63.7 66.9384 63.7 76.769C63.7 86.5997 71.6693 94.569 81.5 94.569Z" fill="#965DED"/>
<path fill-rule="evenodd" clip-rule="evenodd" d="M81.5001 107.919C98.7038 107.919 112.65 93.9728 112.65 76.7691C112.65 59.5655 98.7038 45.6191 81.5001 45.6191C64.2964 45.6191 50.3501 59.5655 50.3501 76.7691C50.3501 93.9728 64.2964 107.919 81.5001 107.919ZM81.5001 103.469C96.2461 103.469 108.2 91.5151 108.2 76.7691C108.2 62.0231 96.2461 50.0691 81.5001 50.0691C66.7541 50.0691 54.8001 62.0231 54.8001 76.7691C54.8001 91.5151 66.7541 103.469 81.5001 103.469Z" fill="#30FD2F"/>
<path d="M40.2154 32.1237C40.3065 31.8501 40.6935 31.8501 40.7846 32.1237L41.672 34.7882C41.6996 34.871 41.7618 34.9377 41.8425 34.9709L44.3251 35.9916C44.573 36.0935 44.573 36.4446 44.3251 36.5465L41.8425 37.5672C41.7618 37.6004 41.6996 37.6671 41.672 37.7499L40.7846 40.4144C40.6935 40.688 40.3065 40.688 40.2154 40.4144L39.328 37.7499C39.3004 37.6671 39.2382 37.6004 39.1575 37.5672L36.6749 36.5465C36.427 36.4446 36.427 36.0935 36.6749 35.9916L39.1575 34.9709C39.2382 34.9377 39.3004 34.871 39.328 34.7882L40.2154 32.1237Z" fill="white"/>
<path d="M35.2133 46.1987C35.3003 45.9166 35.6997 45.9166 35.7867 46.1987L36.135 47.3284C36.1606 47.4112 36.2207 47.479 36.2999 47.5142L37.3825 47.9949C37.6202 48.1004 37.6202 48.4377 37.3825 48.5432L36.2999 49.0239C36.2207 49.0591 36.1606 49.1269 36.135 49.2097L35.7867 50.3394C35.6997 50.6215 35.3003 50.6215 35.2133 50.3394L34.865 49.2097C34.8394 49.1269 34.7793 49.0591 34.7001 49.0239L33.6175 48.5432C33.3798 48.4377 33.3798 48.1004 33.6175 47.9949L34.7001 47.5142C34.7793 47.479 34.8394 47.4112 34.865 47.3284L35.2133 46.1987Z" fill="white"/>
</g>
<path d="M98.7703 64.8045L96.7278 37.3515H102.208L103.41 58.673H103.65L111.141 40.1997H117.221L119.05 58.673H119.29L126.928 37.3515H132.328L121.77 64.8045H115.17L113.209 46.4102H112.969L105.33 64.8045H98.7703ZM142.738 43.0478C149.818 43.0478 151.712 45.619 151.071 49.8913L148.834 64.8045H144.394L144.284 62.075C142.925 63.9342 140.095 65.2 136.615 65.2C131.695 65.2 129.535 63.0639 130.182 58.7521C130.936 53.7283 134.363 51.9483 139.963 51.9483H145.763L145.905 50.9989C146.285 48.4672 145.595 47.2013 141.595 47.2013C140.035 47.2013 138.491 47.3596 136.889 47.6365L137.524 43.4038C139.206 43.1269 141.178 43.0478 142.738 43.0478ZM138.276 61.3234C141.316 61.3234 143.614 60.1367 144.813 58.2775L145.235 55.4689H140.115C136.955 55.4689 135.546 56.0622 135.166 58.5939C134.887 60.4531 135.756 61.3234 138.276 61.3234ZM153.229 72.716L153.87 68.4437C157.55 68.4437 159.134 67.2175 160.314 64.6858L154.98 43.4434H160.5L163.731 59.5037H163.971L171.66 43.4434H176.94L166.567 63.2617C162.981 70.1052 160.389 72.716 153.229 72.716ZM189.887 47.3991H185.127L183.585 57.6841C183.169 60.4531 183.509 61.1256 185.749 61.1256C186.509 61.1256 187.115 61.086 187.738 60.9278L187.151 64.844C186.293 64.9627 185.361 65.0418 184.441 65.0418C179.281 65.0418 177.683 63.6968 178.525 58.0797L180.127 47.3991H177.127L177.721 43.4434H180.721L181.48 38.38H186.48L185.721 43.4434H190.481L189.887 47.3991ZM200.321 65.2C193.761 65.2 190.323 62.787 191.622 54.1239C192.922 45.4608 197.083 43.0478 203.643 43.0478C210.243 43.0478 213.682 45.4608 212.382 54.1239C211.083 62.787 206.921 65.2 200.321 65.2ZM200.896 61.3629C204.896 61.3629 206.392 59.662 207.222 54.1239C208.053 48.5859 207.034 46.8453 203.074 46.8453C199.114 46.8453 197.613 48.5859 196.782 54.1239C195.952 59.662 197.016 61.3629 200.896 61.3629ZM235.226 64.8045L233.758 57.5259H222.158L218.426 64.8045H213.026L227.543 37.3515H234.583L240.786 64.8045H235.226ZM224.37 53.1745H232.85L230.569 41.9798H230.089L224.37 53.1745ZM256.265 65.2C247.865 65.2 243.216 62.5892 244.943 51.078C246.533 40.4766 252.261 36.9559 260.781 36.9559C263.301 36.9559 266.528 37.312 267.993 37.9449L267.304 42.5336C265.377 41.782 263.03 41.4259 260.47 41.4259C254.83 41.4259 251.722 43.4829 250.583 51.078C249.378 59.1082 251.603 60.8091 257.323 60.8091C258.563 60.8091 259.809 60.7696 260.851 60.4927L261.871 53.6888H256.871L257.524 49.3375H267.444L265.243 64.0133C263.068 64.6462 259.745 65.2 256.265 65.2ZM271.261 64.8045L275.379 37.3515H280.619L276.501 64.8045H271.261Z" fill="black"/>
<defs>
<clipPath id="clip0_3160_2520">
<rect x="30" y="25.269" width="50" height="50" rx="8" fill="white"/>
</clipPath>
</defs>
</svg>
